<?xml version="1.0" encoding="UTF-8"?>
<svg width="86px" height="122px" viewBox="0 0 86 122" version="1.1" xmlns="http://www.w3.org/2000/svg" xmlns:xlink="http://www.w3.org/1999/xlink">
    <!-- Generator: Sketch 42 (36781) - http://www.bohemiancoding.com/sketch -->
    <title>Group 2</title>
    <desc>Created with Sketch.</desc>
    <defs>
        <polygon id="path-1" points="0.0005 13 30.0005 13 30.0005 0.0715 0.0005 0.0715 0.0005 13"></polygon>
        <polygon id="path-3" points="24.737 16.365269 24.737 0.309249742 0.48638685 0.309249742 0.48638685 16.365269 24.737 16.365269"></polygon>
    </defs>
    <g id="Page-1" stroke="none" stroke-width="1" fill="none" fill-rule="evenodd">
        <g id="characters" transform="translate(-217.000000, -228.000000)">
            <g id="Group-2" transform="translate(217.000000, 228.000000)">
                <g id="shadow-copy" transform="translate(0.000000, 112.000000)">
                    <ellipse id="Oval-Copy" fill="#F7F9FA" cx="43" cy="5" rx="43" ry="5"></ellipse>
                    <ellipse id="Oval" fill="#E9EAEC" cx="42.5" cy="5" rx="17.5" ry="2"></ellipse>
                </g>
                <g id="Person-7" transform="translate(15.000000, 0.000000)">
                    <path d="M54,27.0001 C54,41.9121 41.912,54.0001 27,54.0001 C12.088,54.0001 0,41.9121 0,27.0001 C0,12.0881 12.088,0.0001 27,0.0001 C41.912,0.0001 54,12.0881 54,27.0001" id="Fill-1" fill="#A76A49"></path>
                    <path d="M52,39.7303 C52,42.2153 49.985,44.2303 47.5,44.2303 C45.015,44.2303 43,42.2153 43,39.7303 C43,37.2453 45.015,35.2303 47.5,35.2303 C49.985,35.2303 52,37.2453 52,39.7303" id="Fill-3" fill="#FECD85"></path>
                    <path d="M11,39.7303 C11,42.2153 8.985,44.2303 6.5,44.2303 C4.015,44.2303 2,42.2153 2,39.7303 C2,37.2453 4.015,35.2303 6.5,35.2303 C8.985,35.2303 11,37.2453 11,39.7303" id="Fill-5" fill="#FECD85"></path>
                    <path d="M34,70.6801 L20,70.6801 C9.507,70.6801 1,79.1871 1,89.6801 L1,98.6801 C1,100.8891 2.791,102.6801 5,102.6801 L49,102.6801 C51.209,102.6801 53,100.8891 53,98.6801 L53,89.6801 C53,79.1871 44.493,70.6801 34,70.6801" id="Fill-7" fill="#FFE2B0"></path>
                    <path d="M34.251,70.6928 L35,79.6798 L29.44,79.4418 L27,85.6798 L24.56,79.4418 L21,79.6798 L21,70.6798 L20,70.6798 C9.507,70.6798 1,79.1868 1,89.6798 L1,98.6798 C1,100.8888 2.791,102.6798 5,102.6798 L49,102.6798 C51.209,102.6798 53,100.8888 53,98.6798 L53,89.6798 C53,79.2718 44.627,70.8288 34.251,70.6928" id="Fill-9" fill="#F1F2F2"></path>
                    <g id="Group-13" transform="translate(12.000000, 102.609000)">
                        <mask id="mask-2" fill="white">
                            <use xlink:href="#path-1"></use>
                        </mask>
                        <g id="Clip-12"></g>
                        <path d="M11.4645,11.5355 L0.0005,0.0715 L30.0005,0.0715 L18.5355,11.5355 C16.5825,13.4885 13.4175,13.4885 11.4645,11.5355" id="Fill-11" fill="#F1F2F2" mask="url(#mask-2)"></path>
                    </g>
                    <path d="M27,79.6801 L27,79.6801 C23.686,79.6801 21,76.9941 21,73.6801 L21,59.6801 L33,59.6801 L33,73.6801 C33,76.9941 30.314,79.6801 27,79.6801" id="Fill-14" fill="#FFE2B0"></path>
                    <path d="M33,67.6801 C33,67.6801 28.521,68.6801 27,68.6801 C25.479,68.6801 21,67.6801 21,67.6801 L21,65.6801 C21,65.6801 25.479,66.6801 27,66.6801 C28.521,66.6801 33,65.6801 33,65.6801 L33,67.6801 Z" id="Fill-16" fill="#292929" opacity="0.200000003"></path>
                    <path d="M10.5,95.1804 C9.671,95.1804 9,95.8524 9,96.6804 L9,102.6804 L12,102.6804 L12,96.6804 C12,95.8524 11.329,95.1804 10.5,95.1804" id="Fill-18" fill="#292929" opacity="0.200000003"></path>
                    <path d="M43.5,95.1804 C42.671,95.1804 42,95.8524 42,96.6804 L42,102.6804 L45,102.6804 L45,96.6804 C45,95.8524 44.329,95.1804 43.5,95.1804" id="Fill-20" fill="#292929" opacity="0.200000003"></path>
                    <path d="M26.9987,54.1208 C23.6607,54.1208 20.9297,56.8518 20.9297,60.1898 L20.9297,60.6728 C20.9297,57.3348 23.6607,54.6038 26.9987,54.6038 C30.3367,54.6038 33.0677,57.3348 33.0677,60.6728 L33.0677,60.1898 C33.0677,56.8518 30.3367,54.1208 26.9987,54.1208" id="Fill-22" fill="#373435"></path>
                    <path d="M27,66.6801 L27,66.6801 C14.85,66.6801 5,56.8301 5,44.6801 L5,25.6801 C5,13.5301 14.85,3.6801 27,3.6801 L27,3.6801 C39.15,3.6801 49,13.5301 49,25.6801 L49,44.6801 C49,56.8301 39.15,66.6801 27,66.6801" id="Fill-24" fill="#FFE2B0"></path>
                    <path d="M29.3757,45.6308 C28.6197,45.8488 27.8207,45.9658 26.9947,45.9658 C26.1707,45.9658 25.3747,45.8498 24.6217,45.6338" id="Fill-26" fill="#FECD85"></path>
                    <path d="M26.9945,46.9661 C26.0945,46.9661 25.2035,46.8411 24.3455,46.5941 C23.8145,46.4421 23.5075,45.8881 23.6605,45.3571 C23.8125,44.8261 24.3665,44.5221 24.8975,44.6721 C26.2565,45.0631 27.7365,45.0631 29.0985,44.6701 C29.6305,44.5191 30.1845,44.8231 30.3365,45.3551 C30.4895,45.8851 30.1835,46.4401 29.6525,46.5921 C28.7905,46.8401 27.8965,46.9661 26.9945,46.9661" id="Fill-28" fill="#FECD85"></path>
                    <path d="M32.3309,52.1208 C33.8229,52.1208 34.8249,53.6418 34.2709,55.0268 C33.1169,57.9118 30.2959,59.9498 26.9989,59.9498 C23.7019,59.9498 20.8809,57.9118 19.7269,55.0268 C19.1729,53.6418 20.1749,52.1208 21.6669,52.1208 L32.3309,52.1208 Z" id="Fill-30" fill="#524758"></path>
                    <path d="M43.0529,49.3158 C43.0529,50.0458 41.8689,50.6378 40.4089,50.6378 C38.9489,50.6378 37.7659,50.0458 37.7659,49.3158 C37.7659,48.5858 38.9489,47.9938 40.4089,47.9938 C41.8689,47.9938 43.0529,48.5858 43.0529,49.3158" id="Fill-32" fill="#FBC6A0"></path>
                    <path d="M15.3984,49.3158 C15.3984,50.0458 14.2144,50.6378 12.7544,50.6378 C11.2944,50.6378 10.1114,50.0458 10.1114,49.3158 C10.1114,48.5858 11.2944,47.9938 12.7544,47.9938 C14.2144,47.9938 15.3984,48.5858 15.3984,49.3158" id="Fill-34" fill="#FBC6A0"></path>
                    <path d="M30.5251,54.8 L23.5171,54.8 C22.3221,54.8 21.3531,53.831 21.3531,52.637 L21.3531,52.121 L32.6881,52.121 L32.6881,52.637 C32.6881,53.831 31.7201,54.8 30.5251,54.8" id="Fill-36" fill="#FEFEFE"></path>
                    <path d="M27,57.0501 C25.476,57.0501 24.132,57.8421 23.348,59.0321 C24.44,59.6101 25.678,59.9501 27,59.9501 C28.322,59.9501 29.56,59.6101 30.652,59.0321 C29.868,57.8421 28.524,57.0501 27,57.0501" id="Fill-38" fill="#F37F65"></path>
                    <path d="M37.5946,44.4463 C34.5986,44.4463 32.1606,42.0083 32.1606,39.0123 C32.1606,36.0153 34.5986,33.5773 37.5946,33.5773 C40.5906,33.5773 43.0286,36.0153 43.0286,39.0123 C43.0286,42.0083 40.5906,44.4463 37.5946,44.4463 M16.4566,44.4463 C13.4596,44.4463 11.0226,42.0083 11.0226,39.0123 C11.0226,36.0153 13.4596,33.5773 16.4566,33.5773 C19.4526,33.5773 21.8906,36.0153 21.8906,39.0123 C21.8906,42.0083 19.4526,44.4463 16.4566,44.4463 M37.5946,31.5813 C34.5836,31.5813 31.9916,33.3833 30.8256,35.9633 L30.1376,35.7653 C28.3116,35.2383 26.3796,35.2383 24.5526,35.7653 L23.3036,36.1253 C22.1746,33.4573 19.5306,31.5813 16.4566,31.5813 C12.3586,31.5813 9.0256,34.9143 9.0256,39.0123 C9.0256,43.1093 12.3586,46.4433 16.4566,46.4433 C20.5546,46.4433 23.8876,43.1093 23.8876,39.0123 C23.8876,38.6873 23.8596,38.3693 23.8186,38.0543 L25.1066,37.6833 C26.5706,37.2603 28.1196,37.2603 29.5846,37.6833 L30.2596,37.8783 C30.2026,38.2493 30.1636,38.6253 30.1636,39.0123 C30.1636,43.1093 33.4966,46.4433 37.5946,46.4433 C41.6926,46.4433 45.0256,43.1093 45.0256,39.0123 C45.0256,34.9143 41.6926,31.5813 37.5946,31.5813" id="Fill-40" fill="#2D2D2D"></path>
                    <path d="M39.0256,39.1801 C39.0256,40.0081 38.3536,40.6801 37.5256,40.6801 C36.6976,40.6801 36.0256,40.0081 36.0256,39.1801 C36.0256,38.3521 36.6976,37.6801 37.5256,37.6801 C38.3536,37.6801 39.0256,38.3521 39.0256,39.1801" id="Fill-42" fill="#2D2D2D"></path>
                    <path d="M18.0256,39.1801 C18.0256,40.0081 17.3536,40.6801 16.5256,40.6801 C15.6976,40.6801 15.0256,40.0081 15.0256,39.1801 C15.0256,38.3521 15.6976,37.6801 16.5256,37.6801 C17.3536,37.6801 18.0256,38.3521 18.0256,39.1801" id="Fill-44" fill="#2D2D2D"></path>
                    <g id="Group-48" transform="translate(30.000000, 4.609000)">
                        <mask id="mask-4" fill="white">
                            <use xlink:href="#path-3"></use>
                        </mask>
                        <g id="Clip-47"></g>
                        <path d="M24.5201,4.8064 C25.6871,10.1414 22.0781,14.3714 15.5261,15.8054 C6.9001,17.6924 1.7711,14.6314 0.6031,9.2964 C-0.4039,4.6894 5.1951,-3.0866 13.9291,1.9404 C21.0391,6.0344 23.3531,-0.5286 24.5201,4.8064" id="Fill-46" fill="#A76A49" mask="url(#mask-4)"></path>
                    </g>
                    <path d="M34.1487,27.6801 C39.5407,27.6801 44.6227,25.9531 48.8117,22.8411 C48.7147,22.0871 48.5797,21.3451 48.4077,20.6161 C44.4167,23.8651 39.4467,25.6801 34.1487,25.6801 C24.1137,25.6801 15.4427,19.0801 12.5277,9.8001 C11.9887,10.3381 11.4807,10.9071 10.9997,11.4981 C14.4957,21.0131 23.6297,27.6801 34.1487,27.6801" id="Fill-49" fill="#292929" opacity="0.200000003"></path>
                    <path d="M26.7471,0.0772 C20.2181,0.0772 14.2331,2.4022 9.5711,6.2682 C11.0271,17.9542 20.9881,27.0002 33.0681,27.0002 C40.7911,27.0002 47.6491,23.3022 51.9731,17.5822 C48.1541,7.3582 38.3021,0.0772 26.7471,0.0772" id="Fill-51" fill="#A76A49"></path>
                    <path d="M8.4348,8.3998 C4.1008,12.9318 1.3288,18.9708 0.9998,25.6558 C1.9148,25.9508 2.8888,26.1148 3.9018,26.1148 C9.1138,26.1148 13.3388,21.8888 13.3388,16.6768 C13.3388,13.1078 11.3568,10.0038 8.4348,8.3998" id="Fill-53" fill="#A76A49"></path>
                    <path d="M9.2983,32.0172 C9.5873,32.0172 9.8733,31.8932 10.0713,31.6532 C11.1523,30.3382 13.0523,28.9842 18.1993,30.1772 C18.7363,30.3052 19.2763,29.9682 19.4003,29.4302 C19.5253,28.8922 19.1903,28.3542 18.6523,28.2302 C13.8653,27.1172 10.6503,27.8032 8.5273,30.3812 C8.1763,30.8082 8.2373,31.4382 8.6633,31.7892 C8.8503,31.9432 9.0743,32.0172 9.2983,32.0172" id="Fill-55" fill="#A76A49"></path>
                    <path d="M34.9644,30.1774 C40.1094,28.9834 42.0114,30.3384 43.0924,31.6534 C43.2904,31.8934 43.5764,32.0174 43.8654,32.0174 C44.0894,32.0174 44.3144,31.9434 44.5004,31.7894 C44.9264,31.4384 44.9874,30.8084 44.6374,30.3814 C42.5144,27.8014 39.2984,27.1144 34.5114,28.2304 C33.9744,28.3544 33.6394,28.8924 33.7644,29.4304 C33.8884,29.9684 34.4304,30.3064 34.9644,30.1774" id="Fill-57" fill="#A76A49"></path>
                    <path d="M21,73.7733 L21,69.6803 C20.04,70.2373 18.67,70.8433 18,71.6803 C16.857,73.1073 16,74.4253 16,76.6803 C16,78.5463 17.186,80.7523 18.267,82.3753 C19.082,83.5993 20.83,83.7263 21.796,82.6173 L24.56,79.4413 C24.56,79.4413 21,77.6803 21,73.7733" id="Fill-59" fill="#AAACAE"></path>
                    <path d="M33,73.7733 L33,69.6803 C33.96,70.2373 35.33,70.8433 36,71.6803 C37.143,73.1073 38,74.4253 38,76.6803 C38,78.5463 36.814,80.7523 35.733,82.3753 C34.918,83.5993 33.17,83.7263 32.204,82.6173 L29.44,79.4413 C29.44,79.4413 33,77.6803 33,73.7733" id="Fill-61" fill="#AAACAE"></path>
                    <path d="M28,85.8253 C28,86.3773 27.552,86.8253 27,86.8253 C26.448,86.8253 26,86.3773 26,85.8253 C26,85.2733 26.448,84.8253 27,84.8253 C27.552,84.8253 28,85.2733 28,85.8253" id="Fill-63" fill="#AAACAE"></path>
                    <path d="M28,90.6801 C28,91.2321 27.552,91.6801 27,91.6801 C26.448,91.6801 26,91.2321 26,90.6801 C26,90.1281 26.448,89.6801 27,89.6801 C27.552,89.6801 28,90.1281 28,90.6801" id="Fill-65" fill="#AAACAE"></path>
                </g>
            </g>
        </g>
    </g>
</svg>